# xmcd
#
# Track frame offsets: 
#        150
#        16022
#        30615
#        46200
#        59970
#        74902
#        87922
#        99315
#        109727
#        120377
#        133407
#        145727
#        155267
#        166215
#        184727
#        196632
#        208710
#        221752
#        236200
#        250627
#        263620
#        273020
#        282807
#        294480
#        309652
#        323140
#
# Disc length: 4471 seconds
#
# Revision: 0
# Processed by: cddbd v1.5.2PL0 Copyright (c) Steve Scherf et al.
# Submitted via: ExactAudioCopy v1.3
#
DISCID=7c11751a
DTITLE=Merle Haggard - Hag-The Studio Recordings 1969-1976 [CD3)
DYEAR=2007
DGENRE=Country
TTITLE0=They're Tearin' The Labor Camps Down
TTITLE1=Bill Woods From Bakersfield
TTITLE2=Old Doc Brown
TTITLE3=A Shoulder To Cry On
TTITLE4=The Funeral
TTITLE5=Bring It On Down To My House, Honey
TTITLE6=Combine Blues
TTITLE7=Blues Stay Away From Me
TTITLE8=Tired Of Your Understanding Ways
TTITLE9=Hag's Dixie Blues #2
TTITLE10=I Ain't Got Nobody (And Nobody Cares For Me)
TTITLE11=Moanin' The Blues
TTITLE12=Don't Let The Deal Go Down
TTITLE13=Stingeree
TTITLE14=Lovesick Blues
TTITLE15=Blues For Dixie
TTITLE16=I Forget You Every Day
TTITLE17=A Shoulder To Cry On
TTITLE18=I Know An Ending When It Comes
TTITLE19=Dad's Old Fiddle
TTITLE20=I'm A White Boy
TTITLE21=I Wonder Where I'll Find You At Tonight
TTITLE22=My Woman Keeps Lovin' Her Man
TTITLE23=It's Not Love (But It's Not Bad)
TTITLE24=Somewhere To Come When It Rains
TTITLE25=My Woman Keeps Lovin' Her Man
EXTD=
EXTT0=
EXTT1=
EXTT2=
EXTT3=
EXTT4=
EXTT5=
EXTT6=
EXTT7=
EXTT8=
EXTT9=
EXTT10=
EXTT11=
EXTT12=
EXTT13=
EXTT14=
EXTT15=
EXTT16=
EXTT17=
EXTT18=
EXTT19=
EXTT20=
EXTT21=
EXTT22=
EXTT23=
EXTT24=
EXTT25=
PLAYORDER=
